<svg id="_0370_bus_driver" xmlns="http://www.w3.org/2000/svg" xmlns:xlink="http://www.w3.org/1999/xlink" viewBox="0 0 500 500" data-imageid="bus-driver-51" imageName="Bus Driver" class="illustrations_image" style="width: 166px;"><defs><style>.cls-1_bus-driver-51{clip-path:url(#clippath);}.cls-2_bus-driver-51{fill:none;}.cls-2_bus-driver-51,.cls-3_bus-driver-51,.cls-4_bus-driver-51,.cls-5_bus-driver-51,.cls-6_bus-driver-51,.cls-7_bus-driver-51,.cls-8_bus-driver-51,.cls-9_bus-driver-51,.cls-10_bus-driver-51,.cls-11_bus-driver-51,.cls-12_bus-driver-51,.cls-13_bus-driver-51,.cls-14_bus-driver-51,.cls-15_bus-driver-51,.cls-16_bus-driver-51,.cls-17_bus-driver-51,.cls-18_bus-driver-51,.cls-19_bus-driver-51,.cls-20_bus-driver-51,.cls-21_bus-driver-51,.cls-22_bus-driver-51,.cls-23_bus-driver-51,.cls-24_bus-driver-51,.cls-25_bus-driver-51,.cls-26_bus-driver-51,.cls-27_bus-driver-51,.cls-28_bus-driver-51,.cls-29_bus-driver-51,.cls-30_bus-driver-51,.cls-31_bus-driver-51,.cls-32_bus-driver-51,.cls-33_bus-driver-51,.cls-34_bus-driver-51,.cls-35_bus-driver-51,.cls-36_bus-driver-51,.cls-37_bus-driver-51,.cls-38_bus-driver-51,.cls-39_bus-driver-51,.cls-40_bus-driver-51,.cls-41_bus-driver-51,.cls-42_bus-driver-51,.cls-43_bus-driver-51,.cls-44_bus-driver-51,.cls-45_bus-driver-51,.cls-46_bus-driver-51,.cls-47_bus-driver-51,.cls-48_bus-driver-51{stroke-width:0px;}.cls-3_bus-driver-51{opacity:.6;}.cls-3_bus-driver-51,.cls-5_bus-driver-51,.cls-33_bus-driver-51,.cls-42_bus-driver-51{isolation:isolate;}.cls-3_bus-driver-51,.cls-45_bus-driver-51{fill:#191919;}.cls-4_bus-driver-51{fill:url(#linear-gradient);}.cls-5_bus-driver-51{opacity:.18;}.cls-5_bus-driver-51,.cls-42_bus-driver-51,.cls-48_bus-driver-51{fill:#68e1fd;}.cls-6_bus-driver-51{fill:url(#linear-gradient-33-bus-driver-51);}.cls-7_bus-driver-51{fill:url(#linear-gradient-29-bus-driver-51);}.cls-8_bus-driver-51{fill:url(#linear-gradient-32-bus-driver-51);}.cls-9_bus-driver-51{fill:url(#linear-gradient-30-bus-driver-51);}.cls-10_bus-driver-51{fill:url(#linear-gradient-31-bus-driver-51);}.cls-11_bus-driver-51{fill:url(#linear-gradient-36-bus-driver-51);}.cls-12_bus-driver-51{fill:url(#linear-gradient-34-bus-driver-51);}.cls-13_bus-driver-51{fill:url(#linear-gradient-37-bus-driver-51);}.cls-14_bus-driver-51{fill:url(#linear-gradient-35-bus-driver-51);}.cls-15_bus-driver-51{fill:url(#linear-gradient-28-bus-driver-51);}.cls-16_bus-driver-51{fill:url(#linear-gradient-25-bus-driver-51);}.cls-17_bus-driver-51{fill:url(#linear-gradient-11-bus-driver-51);}.cls-18_bus-driver-51{fill:url(#linear-gradient-12-bus-driver-51);}.cls-19_bus-driver-51{fill:url(#linear-gradient-13-bus-driver-51);}.cls-20_bus-driver-51{fill:url(#linear-gradient-10-bus-driver-51);}.cls-21_bus-driver-51{fill:url(#linear-gradient-17-bus-driver-51);}.cls-22_bus-driver-51{fill:url(#linear-gradient-16-bus-driver-51);}.cls-23_bus-driver-51{fill:url(#linear-gradient-19-bus-driver-51);}.cls-24_bus-driver-51{fill:url(#linear-gradient-15-bus-driver-51);}.cls-25_bus-driver-51{fill:url(#linear-gradient-23-bus-driver-51);}.cls-26_bus-driver-51{fill:url(#linear-gradient-21-bus-driver-51);}.cls-27_bus-driver-51{fill:url(#linear-gradient-18-bus-driver-51);}.cls-28_bus-driver-51{fill:url(#linear-gradient-22-bus-driver-51);}.cls-29_bus-driver-51{fill:url(#linear-gradient-20-bus-driver-51);}.cls-30_bus-driver-51{fill:url(#linear-gradient-27-bus-driver-51);}.cls-31_bus-driver-51{fill:url(#linear-gradient-24-bus-driver-51);}.cls-32_bus-driver-51{fill:url(#linear-gradient-26-bus-driver-51);}.cls-33_bus-driver-51{fill:url(#linear-gradient-14-bus-driver-51);}.cls-33_bus-driver-51,.cls-49_bus-driver-51{opacity:.5;}.cls-34_bus-driver-51{fill:url(#linear-gradient-4-bus-driver-51);}.cls-35_bus-driver-51{fill:url(#linear-gradient-2-bus-driver-51);}.cls-36_bus-driver-51{fill:url(#linear-gradient-3-bus-driver-51);}.cls-37_bus-driver-51{fill:url(#linear-gradient-8-bus-driver-51);}.cls-38_bus-driver-51{fill:url(#linear-gradient-9-bus-driver-51);}.cls-39_bus-driver-51{fill:url(#linear-gradient-7-bus-driver-51);}.cls-40_bus-driver-51{fill:url(#linear-gradient-5-bus-driver-51);}.cls-41_bus-driver-51{fill:url(#linear-gradient-6-bus-driver-51);}.cls-42_bus-driver-51{opacity:.48;}.cls-43_bus-driver-51{fill:#1a1a1a;}.cls-44_bus-driver-51{fill:#3f3d56;}.cls-46_bus-driver-51{fill:#fff;}.cls-47_bus-driver-51{fill:#ffaa71;}</style><linearGradient id="linear-gradient-bus-driver-51" x1="774.49" y1="2067.24" x2="648.86" y2="1725.39" gradientTransform="translate(-472.98 2244.38) scale(1 -1)" gradientUnits="userSpaceOnUse"><stop offset="0" stop-color="#231f20" stop-opacity="0"/><stop offset="1" stop-color="#231f20"/></linearGradient><linearGradient id="linear-gradient-2-bus-driver-51" x1="-2793.13" y1="1924.89" x2="-2771.08" y2="1924.89" gradientTransform="translate(-2690.95 2244.38) rotate(-180)" xlink:href="#linear-gradient-bus-driver-51"/><linearGradient id="linear-gradient-3-bus-driver-51" x1="-2776.82" y1="1924.47" x2="-2768.8" y2="1924.47" gradientTransform="translate(-2690.95 2244.38) rotate(-180)" gradientUnits="userSpaceOnUse"><stop offset="0" stop-color="#fff"/><stop offset=".43" stop-color="#fdfdfd"/><stop offset=".68" stop-color="#f5f5f5"/><stop offset=".87" stop-color="#e7e7e8"/><stop offset=".97" stop-color="#dddedf"/></linearGradient><linearGradient id="linear-gradient-4-bus-driver-51" x1="-2933.92" y1="1908.32" x2="-2833.77" y2="1890.24" gradientTransform="translate(-2690.95 2244.38) rotate(-180)" xlink:href="#linear-gradient-bus-driver-51"/><linearGradient id="linear-gradient-5-bus-driver-51" x1="-2880.8" y1="1899.73" x2="-2866.82" y2="1899.73" xlink:href="#linear-gradient-3-bus-driver-51"/><linearGradient id="linear-gradient-6-bus-driver-51" x1="-3125.87" y1="1908.32" x2="-3025.72" y2="1890.24" gradientTransform="translate(-2690.95 2244.38) rotate(-180)" xlink:href="#linear-gradient-bus-driver-51"/><linearGradient id="linear-gradient-7-bus-driver-51" x1="-3072.76" y1="1899.73" x2="-3058.78" y2="1899.73" xlink:href="#linear-gradient-3-bus-driver-51"/><linearGradient id="linear-gradient-8-bus-driver-51" x1="-2815.81" y1="1921.42" x2="-2788.07" y2="1921.42" gradientTransform="translate(-2690.95 2244.38) rotate(-180)" xlink:href="#linear-gradient-bus-driver-51"/><linearGradient id="linear-gradient-9-bus-driver-51" x1="-2794.34" y1="1920.95" x2="-2785.58" y2="1920.95" xlink:href="#linear-gradient-3-bus-driver-51"/><linearGradient id="linear-gradient-10-bus-driver-51" x1="-3009.14" y1="1981.06" x2="-3053.66" y2="1871.17" gradientTransform="translate(-2690.95 2244.38) rotate(-180)" xlink:href="#linear-gradient-bus-driver-51"/><linearGradient id="linear-gradient-11-bus-driver-51" x1="-2858.12" y1="2060.88" x2="-3220.71" y2="2004.32" gradientTransform="translate(-2690.95 2244.38) rotate(-180)" xlink:href="#linear-gradient-bus-driver-51"/><linearGradient id="linear-gradient-12-bus-driver-51" x1="322.17" y1="217.49" x2="343.67" y2="37.65" gradientTransform="matrix(1,0,0,1,0,0)" xlink:href="#linear-gradient-bus-driver-51"/><linearGradient id="linear-gradient-13-bus-driver-51" x1="-3013.66" y1="2065.71" x2="-2998.76" y2="2128.55" gradientTransform="translate(-2690.95 2244.38) rotate(-180)" xlink:href="#linear-gradient-bus-driver-51"/><linearGradient id="linear-gradient-14-bus-driver-51" x1="-2875.05" y1="2095.37" x2="-3003.02" y2="2075.19" gradientTransform="translate(-2690.95 2244.38) rotate(-180)" gradientUnits="userSpaceOnUse"><stop offset="0" stop-color="#2b2b2b"/><stop offset=".22" stop-color="#2e2e2e"/><stop offset=".41" stop-color="#383939"/><stop offset=".6" stop-color="#494a4b"/><stop offset=".77" stop-color="#616264"/><stop offset=".94" stop-color="#7f8184"/><stop offset="1" stop-color="#8d8f92"/></linearGradient><linearGradient id="linear-gradient-15-bus-driver-51" x1="144.59" y1="215.36" x2="153.71" y2="406.93" gradientTransform="matrix(1,0,0,1,0,0)" xlink:href="#linear-gradient-bus-driver-51"/><linearGradient id="linear-gradient-16-bus-driver-51" x1="-2822.34" y1="2104.35" x2="-2852.94" y2="1934.65" gradientTransform="translate(-2690.95 2244.38) rotate(-180)" xlink:href="#linear-gradient-bus-driver-51"/><linearGradient id="linear-gradient-17-bus-driver-51" x1="-2893.55" y1="2053.83" x2="-2890.01" y2="2079.03" gradientTransform="translate(-2690.95 2244.38) rotate(-180)" gradientUnits="userSpaceOnUse"><stop offset="0" stop-color="#fff" stop-opacity="0"/><stop offset=".12" stop-color="#fff" stop-opacity=".04"/><stop offset=".33" stop-color="#fff" stop-opacity=".14"/><stop offset=".59" stop-color="#fff" stop-opacity=".3"/><stop offset=".89" stop-color="#fff" stop-opacity=".52"/><stop offset="1" stop-color="#fff" stop-opacity=".6"/></linearGradient><linearGradient id="linear-gradient-18-bus-driver-51" x1="-3029.91" y1="1832.02" x2="-3003.47" y2="1980.86" gradientTransform="translate(-2690.95 2244.38) rotate(-180)" xlink:href="#linear-gradient-bus-driver-51"/><linearGradient id="linear-gradient-19-bus-driver-51" x1="703.91" y1="1979.68" x2="899.07" y2="1979.68" xlink:href="#linear-gradient-bus-driver-51"/><linearGradient id="linear-gradient-20-bus-driver-51" x1="807.73" y1="2021.43" x2="856.71" y2="2021.43" xlink:href="#linear-gradient-bus-driver-51"/><clipPath id="clippath_bus-driver-51"><path class="cls-2_bus-driver-51" d="M210.69,262.9c-5.44-29.04-11.96-51.49-42.34-45.89-20.43,3.8-72.02,23.22-95.61,32.48,0,0,0-6.5.13-8.35.64-12.98.16-19.6,4.12-21.5,3.96-1.9,72.22-47.08,102.44-57,30.22-9.92,31.48-5.72,36.18,11.04,3.43,12.13,6.55,52.31,8.33,89.26l-13.21.23c0-.09-.03-.18-.05-.26Z"/></clipPath><linearGradient id="linear-gradient-21-bus-driver-51" x1="892.02" y1="1932.31" x2="899.96" y2="1932.31" gradientTransform="translate(-472.98 2244.38) scale(1 -1)" gradientUnits="userSpaceOnUse"><stop offset=".02" stop-color="#fff" stop-opacity="0"/><stop offset=".39" stop-color="#fff" stop-opacity=".39"/><stop offset="1" stop-color="#fff"/></linearGradient><linearGradient id="linear-gradient-22-bus-driver-51" x1="704.33" y1="1925.28" x2="720.41" y2="1925.28" xlink:href="#linear-gradient-21-bus-driver-51"/><linearGradient id="linear-gradient-23-bus-driver-51" x1="714.4" y1="1918.46" x2="726.15" y2="1918.46" xlink:href="#linear-gradient-21-bus-driver-51"/><linearGradient id="linear-gradient-24-bus-driver-51" x1="730.61" y1="1916.23" x2="739.48" y2="1916.23" xlink:href="#linear-gradient-21-bus-driver-51"/><linearGradient id="linear-gradient-25-bus-driver-51" x1="890.99" y1="1921.07" x2="900.12" y2="1921.07" xlink:href="#linear-gradient-21-bus-driver-51"/><linearGradient id="linear-gradient-26-bus-driver-51" x1="884.07" y1="1917.91" x2="890.97" y2="1917.91" xlink:href="#linear-gradient-21-bus-driver-51"/><linearGradient id="linear-gradient-27-bus-driver-51" x1="-738.95" y1="2025.56" x2="-738.95" y2="2022.33" gradientTransform="translate(939.08 2304.91) rotate(2.81) scale(1.02 -.98) skewX(-2.13)" xlink:href="#linear-gradient-bus-driver-51"/><linearGradient id="linear-gradient-28-bus-driver-51" x1="-793.73" y1="1977.55" x2="-793.73" y2="1975.16" gradientTransform="translate(939.08 2304.91) rotate(2.81) scale(1.02 -.98) skewX(-2.13)" xlink:href="#linear-gradient-bus-driver-51"/><linearGradient id="linear-gradient-29-bus-driver-51" x1="593.66" y1="1967.06" x2="597.68" y2="1873.71" xlink:href="#linear-gradient-bus-driver-51"/><linearGradient id="linear-gradient-30-bus-driver-51" x1="342.52" y1="286.62" x2="343.17" y2="326.69" gradientTransform="matrix(1,0,0,1,0,0)" xlink:href="#linear-gradient-bus-driver-51"/><linearGradient id="linear-gradient-31-bus-driver-51" x1="720.74" y1="2049.96" x2="812.08" y2="1976.7" xlink:href="#linear-gradient-bus-driver-51"/><linearGradient id="linear-gradient-32-bus-driver-51" x1="763.66" y1="2016.29" x2="780.35" y2="2028.5" xlink:href="#linear-gradient-bus-driver-51"/><linearGradient id="linear-gradient-33-bus-driver-51" x1="748.73" y1="1995.24" x2="755.21" y2="2034.8" xlink:href="#linear-gradient-bus-driver-51"/><linearGradient id="linear-gradient-34-bus-driver-51" x1="733.68" y1="1998.38" x2="753.7" y2="2027.44" xlink:href="#linear-gradient-bus-driver-51"/><linearGradient id="linear-gradient-35-bus-driver-51" x1="747.39" y1="1988.07" x2="735.02" y2="2033.21" xlink:href="#linear-gradient-bus-driver-51"/><linearGradient id="linear-gradient-36-bus-driver-51" x1="759.37" y1="2062.89" x2="755.53" y2="2041.75" xlink:href="#linear-gradient-bus-driver-51"/><linearGradient id="linear-gradient-37-bus-driver-51" x1="747.82" y1="2024.9" x2="735.3" y2="2033.33" xlink:href="#linear-gradient-bus-driver-51"/></defs><g id="background_bus-driver-51"><path class="cls-5_bus-driver-51 targetColor" d="M471.72,413.85c-23.72,22.83-60.58,28.11-94.64,28.84-32.63,1.02-66.41-1.2-98.16-9.15-28.61-7.11-58.89-4.1-88.75-3.76-43.55.5-90.14.19-126.36-23.92-35.42-23.51-54.33-66.33-58.41-108.65-.25-2.64-.48-5.28-.65-7.92-3.97-56.83,8.59-112.16,43.94-156.91,32.09-40.62,75.71-73.24,126.68-85.12,27.45-6.41,56.11-6.78,84.4-5.77,30.62,1.07,61.76,4.25,90.93,13.44,40.34,12.7,82.09,41.19,93.5,81.3,12.72,44.83,21.52,89.83,36.14,134.6,1.31,4.04,2.63,8.08,3.92,12.14,6.38,20.11,11.96,40.49,12.62,61.39.79,25.11-6.41,51.46-25.15,69.49Z" style="fill: rgb(104, 225, 253);"/><path class="cls-42_bus-driver-51 targetColor" d="M471.72,413.85c-23.72,22.83-60.58,28.11-94.64,28.84-32.63,1.02-66.41-1.2-98.16-9.15-28.61-7.11-58.89-4.1-88.75-3.76-43.55.5-90.14.19-126.36-23.92-35.42-23.51-54.33-66.33-58.41-108.65-.25-2.64-.48-5.28-.65-7.92l479.52-6.33c6.38,20.11,11.96,40.49,12.62,61.39.78,25.12-6.42,51.47-25.17,69.5Z" style="fill: rgb(104, 225, 253);"/><path class="cls-4_bus-driver-51" d="M22.61,328.64c1.09,4.75,5.67,7.73,9.95,10.05,11.96,6.49,24.54,11.75,37.09,17.02l86.72,36.33c13.22,5.55,26.64,11.15,40.78,13.82,14.31,2.7,29.01,2.4,43.58,1.97,62.81-1.62,125.72-3.23,188.13-10.47,8.21-.95,17.75-2.93,21.22-10.41,3.12-6.69-.54-14.97-6.41-19.47-5.86-4.49-13.35-6.11-20.59-7.6l-45.34-9.35c-64.9-13.38-129.79-26.76-195.38-35.97-15.77-2.21-169.12-26.72-159.76,14.07Z"/></g><g id="bus_bus-driver-51"><g id="Layer_1_bus-driver-51"><path class="cls-43_bus-driver-51" d="M84.71,271.36c40.05,7.01,83.26-26.87,117.61,34.52,4.9,9.78,6.31,29.67,6.66,49.74-41.05-11.73-131.46-41.13-133.09-42.53-2.88-2.46-2.88-12.12-2.77-20.75.05-3.27,5.14-11.37,11.59-20.99Z"/><path class="cls-44_bus-driver-51" d="M86.38,294.51c3.73.1,15.49,10.86,15.78,24.43.25,12.27-3.14,22.89-6.34,24.57l-12.24.96,1.44-2.44c-2.63-3.55-4.66-12.59-4.87-23.14-.29-13.56,2.51-24.48,6.24-24.38Z"/><path class="cls-35_bus-driver-51" d="M86.38,294.51c3.73.1,15.49,10.86,15.78,24.43.25,12.27-3.14,22.89-6.34,24.57l-12.24.96,1.44-2.44c-2.63-3.55-4.66-12.59-4.87-23.14-.29-13.56,2.51-24.48,6.24-24.38Z"/><line class="cls-2_bus-driver-51" x1="95.82" y1="343.51" x2="83.58" y2="344.47"/><path class="cls-44_bus-driver-51" d="M76.03,319.74c.29,13.56,3.55,24.64,7.28,24.73s6.52-10.81,6.24-24.37c-.29-13.56-3.54-24.65-7.28-24.74-3.74-.09-6.52,10.81-6.24,24.38Z"/><path class="cls-36_bus-driver-51" d="M77.85,319.81c.17,8.01,2.11,14.59,4.3,14.65,2.2.06,3.87-6.41,3.71-14.44s-2.11-14.59-4.31-14.65-3.86,6.41-3.7,14.44Z"/><path class="cls-44_bus-driver-51" d="M79.4,319.86c.08,3.87,1.01,7.04,2.07,7.06s1.87-3.09,1.79-6.96c-.08-3.87-1.01-7.04-2.07-7.07s-1.79,3.09-1.79,6.97Z"/><path class="cls-44_bus-driver-51" d="M190.76,300.46c6.5.17,34.33,19.89,34.84,43.48.45,21.36-3.43,38.91-9.05,42l-30.72,1.52,2.52-4.26c-4.58-6.18-8.11-21.92-8.5-40.28-.45-23.61,4.42-42.64,10.92-42.46Z"/><path class="cls-34_bus-driver-51" d="M190.76,300.46c6.5.17,34.33,19.89,34.84,43.48.45,21.36-3.43,38.91-9.05,42l-30.72,1.52,2.52-4.26c-4.58-6.18-8.11-21.92-8.5-40.28-.45-23.61,4.42-42.64,10.92-42.46Z"/><path class="cls-44_bus-driver-51" d="M172.72,344.39c.49,23.62,6.17,42.9,12.67,43.07s11.36-18.84,10.86-42.45c-.5-23.62-6.17-42.91-12.66-43.08-6.49-.17-11.36,18.85-10.87,42.46Z"/><path class="cls-40_bus-driver-51" d="M175.89,344.49c.29,13.98,3.65,25.41,7.5,25.51,3.84.09,6.73-11.16,6.44-25.17-.29-14.02-3.65-25.41-7.51-25.52s-6.73,11.21-6.43,25.19Z"/><path class="cls-44_bus-driver-51" d="M178.66,344.6c.14,6.74,1.76,12.26,3.62,12.3,1.85.05,3.24-5.38,3.1-12.13-.14-6.75-1.76-12.26-3.62-12.3s-3.25,5.38-3.1,12.13Z"/><path class="cls-44_bus-driver-51" d="M382.71,300.46c6.5.17,34.33,19.89,34.84,43.48.45,21.36-3.49,38.91-9.05,42l-30.68,1.5,2.52-4.26c-4.58-6.18-8.11-21.92-8.5-40.28-.49-23.58,4.37-42.61,10.87-42.44Z"/><path class="cls-41_bus-driver-51" d="M382.71,300.46c6.5.17,34.33,19.89,34.84,43.48.45,21.36-3.49,38.91-9.05,42l-30.68,1.5,2.52-4.26c-4.58-6.18-8.11-21.92-8.5-40.28-.49-23.58,4.37-42.61,10.87-42.44Z"/><path class="cls-44_bus-driver-51" d="M364.68,344.39c.5,23.62,6.17,42.9,12.67,43.07s11.36-18.84,10.86-42.45c-.5-23.62-6.17-42.85-12.66-43.08-6.49-.23-11.36,18.85-10.87,42.46Z"/><path class="cls-39_bus-driver-51" d="M367.85,344.49c.3,13.98,3.65,25.41,7.5,25.51,3.84.09,6.74-11.16,6.44-25.17-.3-14.02-3.65-25.41-7.51-25.52s-6.73,11.21-6.43,25.19Z"/><path class="cls-44_bus-driver-51" d="M370.62,344.6c.14,6.74,1.76,12.26,3.62,12.3,1.85.05,3.24-5.38,3.1-12.13-.14-6.75-1.76-12.26-3.62-12.3s-3.25,5.38-3.1,12.13Z"/><path class="cls-44_bus-driver-51" d="M103.95,295.71c4.07.1,20.6,12.2,20.89,26.99.27,13.39-2.2,24.42-5.72,26.32l-18.31,1.2,1.58-2.67c-2.88-3.87-5.08-13.73-5.32-25.24-.24-14.8,2.8-26.71,6.88-26.6Z"/><path class="cls-37_bus-driver-51" d="M103.95,295.71c4.07.1,20.6,12.2,20.89,26.99.27,13.39-2.2,24.42-5.72,26.32l-18.31,1.2,1.58-2.67c-2.88-3.87-5.08-13.73-5.32-25.24-.24-14.8,2.8-26.71,6.88-26.6Z"/><path class="cls-44_bus-driver-51" d="M92.64,323.23c.32,14.81,3.87,26.89,7.94,26.99,4.07.1,7.12-11.8,6.81-26.6-.31-14.81-3.87-26.88-7.93-26.99-4.06-.11-7.13,11.81-6.82,26.6Z"/><path class="cls-38_bus-driver-51" d="M94.63,323.31c.18,8.77,2.29,15.93,4.7,16.02s4.21-6.99,4.03-15.77c-.18-8.78-2.29-15.92-4.7-16.02-2.41-.1-4.21,7-4.03,15.77Z"/><path class="cls-44_bus-driver-51" d="M96.37,323.38c.08,4.22,1.14,7.68,2.29,7.7s2.04-3.38,1.96-7.6c-.08-4.22-1.14-7.68-2.29-7.71s-2.05,3.38-1.96,7.61Z"/><path class="cls-48_bus-driver-51 targetColor" d="M202.32,305.96c-34.33-61.39-77.55-27.46-117.61-34.52,10.54-15.83,24.51-35.75,24.83-44.95.51-14.81-.74-34.81,3.17-37.27,3.91-2.46,62.06-46.13,91.98-60.36,29.92-14.24,196.75-9.63,201.82,6.41,5.07,16.04,17.16,98.47,20.25,149.2,2.23,36.23,1.96,39.42,1.6,68.76,0,0-170.6,7.25-199.99,7.25-1.9,0-9.1-1.83-19.4-4.78-.35-20.07-1.76-39.96-6.66-49.74Z" style="fill: rgb(104, 225, 253);"/><path class="cls-20_bus-driver-51" d="M240.75,296.92c-.21-1.29-.15-2.61.18-3.87,5.25,15.14,47,27.14,95.56,27.14s82.39-10.86,85.95-24.92c.19.53.33,1.07.42,1.62,2.73,15.88-35.83,28.78-86.11,28.78s-93.26-12.86-96.01-28.76Z"/><path class="cls-17_bus-driver-51" d="M223.85,134.47c6.02-4.79,172.2-3.7,177.22-2.39,2.09.51,3.98,1.62,5.45,3.19,1.39,2.64,2.52,5.4,3.38,8.26,2.54,8.64,4.54,17.43,6,26.32,2.91,18.15,6.72,46.53,9.37,85.93.3,4.73.58,9.63.85,14.69.09,4.51-.09,13.22-2.72,14.51-3.56,1.74-174.68,3.26-182.81-2.62-8.14-5.88-8.4-11.33-9.85-32.23-1.45-20.91-5.72-76.89-8.01-88.65-2.29-11.76-4.84-22.21,1.14-27.01Z"/><path class="cls-18_bus-driver-51" d="M223.85,134.47c6.02-4.79,172.2-3.7,177.22-2.39,2.09.51,3.98,1.62,5.45,3.19,1.39,2.64,2.52,5.4,3.38,8.26,2.54,8.64,4.54,17.43,6,26.32,2.91,18.15,6.72,46.53,9.37,85.93.3,4.73.58,9.63.85,14.69.09,4.51-.09,13.22-2.72,14.51-2.43.38-4.89.57-7.35.57-2.29-37.2-.84-47.57-8.69-95.48-6.1-28.08-15.88-25.63-29.83-25.63,2.88,43.14,7.86,78.76,10.01,121.9-52.2.46-141.69-.17-146.96-3.98-8.15-5.88-8.4-11.33-9.85-32.23-1.45-20.91-5.72-76.89-8.01-88.65-2.29-11.76-4.84-22.21,1.14-27.01Z"/><path class="cls-19_bus-driver-51" d="M223.85,134.47c6.02-4.79,172.2-3.7,177.22-2.39,2.09.51,3.98,1.62,5.45,3.19,1.39,2.64,2.52,5.4,3.38,8.26,1,3.14,2.11,7.33,3.28,12.59l-191.27,1.53c-1.99-10.16-3.42-18.92,1.95-23.18Z"/><path class="cls-44_bus-driver-51" d="M407.3,325.53s10.49-2.55,15.29-19.61c5.31-9.65,7.28,6.51,6.87,18.84-.31,9.03-16.32,9.42-21.15,8.46-4.83-.96-6.56-5.05-1.01-7.68Z"/><path class="cls-44_bus-driver-51" d="M404.53,327.6l.15-.18c.67-.76,1.52-1.34,2.46-1.72,3.03-.98,5.73-2.79,7.77-5.24,3.32-3.71,5.77-8.11,7.16-12.88,3.9-4.15,5.36,8.01,5.02,17.52-.27,7.61-14.68,7.94-19.03,7.13-3.23-.65-4.91-2.7-3.54-4.62Z"/><path class="cls-48_bus-driver-51 targetColor" d="M419.04,314.64c1.26-2.25,2.28-4.64,3.03-7.11,2.88-3.08,4.43,2.8,4.91,9.92-1.42-2-5.06-2.71-7.94-2.81Z" style="fill: rgb(104, 225, 253);"/><path class="cls-48_bus-driver-51 targetColor" d="M377.63,125.23s-148.76,0-171.64,3.76c-12.59,3.08-124.6,69.44-124.6,69.44l5.55-9.29s83.04-61.57,112.45-73.23c29.41-11.66,172.32-19.46,178.25,9.33Z" style="fill: rgb(104, 225, 253);"/><path class="cls-33_bus-driver-51" d="M377.63,125.23s-148.76,0-171.64,3.76c-12.59,3.08-124.6,69.44-124.6,69.44l5.55-9.29s83.04-61.57,112.45-73.23c29.41-11.66,172.32-19.46,178.25,9.33Z"/><path class="cls-48_bus-driver-51 targetColor" d="M69.16,304.81c.11-8.63,1.5-63.6,2.01-78.4.51-14.8-.06-21.2,3.86-23.68,3.91-2.47,73.43-51.18,103.35-65.36,29.92-14.18,31.32-10.15,36.38,5.89,5.06,16.04,10.73,85.44,12.45,126.62,1.6,38.64,1.14,98.16,1.14,98.16l-31.15-9.72c.16-3.5.21-7.16.13-10.93-.55-26.06-6.8-47.33-13.97-47.52-7.17-.19-12.59,20.79-11.98,46.85,0,1.14.07,2.37.11,3.54-21.15-6.64-44.44-14.02-63.26-20.07.07-1.99.09-4.06,0-6.19-.33-16.19-4.22-29.41-8.67-29.52-4.45-.11-7.79,12.91-7.45,29.1v1.41l-2.11-.69v-4.29c-.31-14.41-3.76-26.17-7.72-26.32s-6.87,11.44-6.63,25.7c-1.43-.44-2.82-1-4.15-1.67-2.75-2.41-2.4-4.27-2.35-12.91Z" style="fill: rgb(104, 225, 253);"/><path class="cls-24_bus-driver-51" d="M69.16,304.81c.11-8.63,1.5-63.6,2.01-78.4.51-14.8-.06-21.2,3.86-23.68,3.91-2.47,73.43-51.18,103.35-65.36,29.92-14.18,31.32-10.15,36.38,5.89,5.06,16.04,10.73,85.44,12.45,126.62,1.6,38.64,1.14,98.16,1.14,98.16l-31.15-9.72c.16-3.5.21-7.16.13-10.93-.55-26.06-6.8-47.33-13.97-47.52-7.17-.19-12.59,20.79-11.98,46.85,0,1.14.07,2.37.11,3.54-21.15-6.64-44.44-14.02-63.26-20.07.07-1.99.09-4.06,0-6.19-.33-16.19-4.22-29.41-8.67-29.52-4.45-.11-7.79,12.91-7.45,29.1v1.41l-2.11-.69v-4.29c-.31-14.41-3.76-26.17-7.72-26.32s-6.87,11.44-6.63,25.7c-1.43-.44-2.82-1-4.15-1.67-2.75-2.41-2.4-4.27-2.35-12.91Z"/><path class="cls-22_bus-driver-51" d="M210.69,262.9c-5.44-29.04-11.96-51.49-42.34-45.89-20.43,3.8-72.02,23.22-95.61,32.48,0,0,0-6.5.13-8.35.64-12.98.16-19.6,4.12-21.5,3.96-1.9,72.22-47.08,102.44-57,30.22-9.92,31.48-5.72,36.18,11.04,3.43,12.13,6.55,52.31,8.33,89.26l-13.21.23c0-.09-.03-.18-.05-.26Z"/><path class="cls-21_bus-driver-51" d="M216.59,263.07l-5.86.09c0-.09,0-.18,0-.26-1.16-6.81-2.69-13.54-4.58-20.19,4.76,5.08,7.95,12.13,10.44,20.36Z"/><path class="cls-48_bus-driver-51 targetColor" d="M151.49,175.35l.68-.34,1.34,45.77-.68.19-1.34-45.62Z" style="fill: rgb(104, 225, 253);"/><path class="cls-48_bus-driver-51 targetColor" d="M117.69,194.59l.68-.41.56,38.06-.68.24-.56-37.89Z" style="fill: rgb(104, 225, 253);"/><path class="cls-48_bus-driver-51 targetColor" d="M91.44,210.7l.68-.42v31.79l-.68.25v-31.62Z" style="fill: rgb(104, 225, 253);"/><path class="cls-48_bus-driver-51 targetColor" d="M429.12,336.16s-.77,2.17-12.22,2.39c-11.45.22-184.47,2.83-190.31-.46-.08,11.01-.96,29.93,1.81,31.23,3.43,1.61,179.76-.93,187.9-2.03,8.15-1.1,11.2-2.39,12.22-10.01,1.02-7.62.6-21.12.6-21.12Z" style="fill: rgb(104, 225, 253);"/><path class="cls-27_bus-driver-51" d="M429.12,336.16s-.77,2.17-12.22,2.39c-11.45.22-184.47,2.83-190.31-.46-.08,11.01-.96,29.93,1.81,31.23,3.43,1.61,179.76-.93,187.9-2.03,8.15-1.1,11.2-2.39,12.22-10.01,1.02-7.62.6-21.12.6-21.12Z"/><path class="cls-48_bus-driver-51 targetColor" d="M197.6,262.34l-3.76-103.97.68-.16,6.87,186.85,23.58,6.87c.43-40.84-1.14-78.35-1.64-89.03h.69c.57,12.31,2.46,57.96,1.37,104.13l-.68-.23c.11-4.41.18-8.8.23-13.17l-23.49-6.87.47,12.99-.69-.26-.53-12.86h-.07v-.87l-2.98-81.66-32.33,2.86,1.34,81.83-.69-.26-1.34-81.51-27.73,2.46,1.14,70.31-.68-.24-1.14-70.01-24.93,2.21.96,59.8-.69-.27-.95-59.5-40.78,3.62v-1.74l127.75-11.31Z" style="fill: rgb(104, 225, 253);"/><path class="cls-3_bus-driver-51" d="M218.8,263.03c0-.48-.09-.96-.13-1.44l-2.36-37.53c-.49-7.85,1.22-14.4,3.98-16.09,1.46,16.4,2.72,36.1,3.64,54.93l-5.14.14Z"/><path class="cls-23_bus-driver-51" d="M423.38,284.99c-3.57,1.74-174.68,3.26-182.81-2.62-7.72-5.57-8.35-10.77-9.63-29.13,4.45-2.92,13.13-5.09,24.44-6.68,2.68-.38,5.5-.72,8.46-1.03,5.36-.56,11.13-1.03,17.16-1.4l3.49-.21c4.37-.24,8.86-.44,13.47-.6l4.93-.15c4.47-.11,9.04-.21,13.62-.26,2.43,0,4.87-.06,7.31-.07h3.49c12.59,0,25.17.16,36.91.47,32.85.89,59.01,2.81,60.4,4.02.21,2.77.41,5.57.61,8.47.31,4.74.59,9.63.85,14.69.11,4.49-.07,13.19-2.69,14.5Z"/><path class="cls-29_bus-driver-51" d="M383.79,244.22c-15.08-.4-31.57-.6-47.72-.4l-1.26-26.24c0-8.88,10.76-16.02,23.94-15.88,13.18.14,23.86,7.39,23.81,16.28l1.22,26.24Z"/><g class="cls-49_bus-driver-51"><g class="cls-1_bus-driver-51"><path class="cls-45_bus-driver-51" d="M223.99,233.78c1.38,6.24,8.73,11.04,16.41,10.73h0c7.68-.32,12.78-5.63,11.44-11.87l-5.72-25.67c-1.38-6.24-8.73-11.04-16.41-10.72h0c-7.68.31-12.78,5.62-11.44,11.85l5.72,25.67Z"/><path class="cls-45_bus-driver-51" d="M194.14,234.99c1.38,6.24,16.41,35.93,24.1,35.61l5.72-2.37c7.68-.32,7.08-3.25,5.72-9.49l-13.39-50.54c-1.38-6.25-8.73-11.05-16.41-10.73h0c-7.69.31-12.78,5.62-11.44,11.85l5.7,25.67Z"/><path class="cls-45_bus-driver-51" d="M174.66,238.07c1.45,5.44,5.72,9.15,9.6,8.39h0c3.84-.79,5.78-5.84,4.33-11.27l-6-22.29c-1.45-5.44-5.72-9.15-9.6-8.4h0c-3.84.8-5.78,5.85-4.33,11.28l6,22.29Z"/><path class="cls-45_bus-driver-51" d="M159.7,241.17c1.46,5.42,5.72,9.15,9.6,8.39h0c3.84-.79,5.79-5.85,4.33-11.27l-5.98-22.35c-1.45-5.44-5.72-9.15-9.61-8.4h0c-3.84.8-5.72,5.85-4.33,11.28l6,22.35Z"/><path class="cls-45_bus-driver-51" d="M144.89,242.84c1.27,4.75,5.03,8.01,8.4,7.35h0c3.36-.7,5.06-5.13,3.79-9.88l-5.24-19.57c-1.28-4.76-5.05-8.01-8.41-7.35h0c-3.36.7-5.07,5.11-3.79,9.88l5.25,19.57Z"/><path class="cls-45_bus-driver-51" d="M131.63,246.64c1.28,4.76,5.03,8.01,8.4,7.35h0c3.43-.7,5.07-5.11,3.79-9.88l-5.24-19.57c-1.27-4.75-5.03-8.01-8.41-7.35h0c-3.36.7-5.06,5.11-3.79,9.88l5.25,19.57Z"/><path class="cls-45_bus-driver-51" d="M119.75,252.79c1.3,4.89,5.17,8.27,8.64,7.55h0c3.43-.72,5.21-5.26,3.89-10.15l-5.39-20.13c-1.32-4.9-5.18-8.27-8.65-7.55h0c-3.43.71-5.21,5.26-3.89,10.15l5.4,20.13Z"/><path class="cls-45_bus-driver-51" d="M105.95,257.43c1.32,4.89,5.18,8.26,8.65,7.55h0c3.43-.72,5.2-5.26,3.89-10.15l-5.4-20.13c-1.3-4.89-5.18-8.26-8.64-7.55h0c-3.43.72-5.21,5.26-3.9,10.15l5.4,20.13Z"/><path class="cls-45_bus-driver-51" d="M93.38,260.09c1.14,4.17,4.39,7.03,7.33,6.42h0c2.95-.61,4.43-4.46,3.31-8.62l-4.58-17.1c-1.14-4.15-4.41-7.03-7.35-6.42h0c-2.94.61-4.42,4.46-3.31,8.63l4.59,17.08Z"/><path class="cls-45_bus-driver-51" d="M79.75,262.35c.6,4.26,3.52,7.51,6.51,7.25h0c2.99-.25,4.93-3.9,4.33-8.17l-2.49-17.52c-.61-4.26-3.52-7.51-6.52-7.25h0c-2.99.25-4.92,3.91-4.33,8.17l2.51,17.52Z"/></g></g><path class="cls-44_bus-driver-51" d="M276.55,325.7s-19.45-4.14-32.26-15.24c-10.09-8.72-15.62,5.89-13.08,16.98,2.54,11.09,30.96,8.5,40.14,7.62,9.18-.88,10.58-7.91,5.2-9.36Z"/><path class="cls-44_bus-driver-51" d="M274.45,325.74s-18.21-3.55-30.26-13.04c-9.46-7.46-14.66,5.05-12.27,14.53,2.39,9.49,29.04,7.27,37.65,6.52,8.61-.74,9.93-6.77,4.87-8.01Z"/><path class="cls-48_bus-driver-51 targetColor" d="M232.12,327.78c-.08-.18-.14-.37-.19-.56-2.39-9.49,2.8-21.99,12.27-14.53,1.04.81,2.12,1.59,3.24,2.29-7.66,1.8-13.23,6.28-15.31,12.8Z" style="fill: rgb(104, 225, 253);"/><path class="cls-48_bus-driver-51 targetColor" d="M241.42,325.92c0,3.76,2.63,6.87,5.87,6.87s5.87-3.06,5.87-6.87-2.63-6.87-5.87-6.87-5.87,3.1-5.87,6.87Z" style="fill: rgb(104, 225, 253);"/><path class="cls-48_bus-driver-51 targetColor" d="M257.63,328.15c0,2.85,1.99,5.15,4.44,5.15s4.43-2.29,4.43-5.15-1.98-5.15-4.43-5.15-4.44,2.3-4.44,5.15Z" style="fill: rgb(104, 225, 253);"/><path class="cls-48_bus-driver-51 targetColor" d="M427.14,323.32c0,2.95-2.05,5.34-4.58,5.34s-4.58-2.39-4.58-5.34,2.05-5.36,4.58-5.36,4.58,2.4,4.58,5.36Z" style="fill: rgb(104, 225, 253);"/><path class="cls-48_bus-driver-51 targetColor" d="M417.99,327.02c-.3,1.9-2.09,3.2-4,2.9-1.9-.3-3.2-2.09-2.9-4,.27-1.7,1.74-2.95,3.46-2.94,2.05.19,3.58,1.98,3.43,4.04Z" style="fill: rgb(104, 225, 253);"/><path class="cls-26_bus-driver-51" d="M419.04,314.64c1.26-2.25,2.28-4.64,3.03-7.11,2.88-3.08,4.43,2.8,4.91,9.92-1.42-2-5.06-2.71-7.94-2.81Z"/><path class="cls-28_bus-driver-51" d="M232.12,327.78c-.08-.18-.14-.37-.19-.56-2.39-9.49,2.8-21.99,12.27-14.53,1.04.81,2.12,1.59,3.24,2.29-7.66,1.8-13.23,6.28-15.31,12.8Z"/><path class="cls-25_bus-driver-51" d="M241.42,325.92c0,3.76,2.63,6.87,5.87,6.87s5.87-3.06,5.87-6.87-2.63-6.87-5.87-6.87-5.87,3.1-5.87,6.87Z"/><path class="cls-31_bus-driver-51" d="M257.63,328.15c0,2.85,1.99,5.15,4.44,5.15s4.43-2.29,4.43-5.15-1.98-5.15-4.43-5.15-4.44,2.3-4.44,5.15Z"/><path class="cls-16_bus-driver-51" d="M427.14,323.32c0,2.95-2.05,5.34-4.58,5.34s-4.58-2.39-4.58-5.34,2.05-5.36,4.58-5.36,4.58,2.4,4.58,5.36Z"/><path class="cls-32_bus-driver-51" d="M417.99,327.02c-.3,1.9-2.09,3.2-4,2.9-1.9-.3-3.2-2.09-2.9-4,.27-1.7,1.74-2.95,3.46-2.94,2.05.19,3.58,1.98,3.43,4.04Z"/><path class="cls-30_bus-driver-51" d="M207.78,287.39c0,.37-.13.65-.27.63l-3.88-.48c-.15,0-.26-.33-.26-.7v-1.56c0-.37.11-.64.26-.62l3.89.48c.15,0,.26.32.26.69v1.56Z"/><path class="cls-15_bus-driver-51" d="M150.87,331.2c0,.27-.09.48-.21.47l-2.88-.35c-.11,0-.19-.25-.19-.51v-1.14c0-.27.09-.48.19-.47l2.9.37c.1,0,.19.24.19.51v1.13Z"/><path class="cls-7_bus-driver-51" d="M124.1,326.03c0,.22-.07.39-.16.38l-2.37-.23c-.09,0-.16-.21-.16-.42v-.95c0-.23.07-.39.16-.38l2.37.29c.09,0,.16.21.16.42v.89Z"/><polygon class="cls-5_bus-driver-51 targetColor" points="290.48 130.86 387.53 286.34 423.38 284.96 334.99 132.26 290.48 130.86" style="fill: rgb(104, 225, 253);"/><polygon class="cls-5_bus-driver-51 targetColor" points="100.85 205.74 126.88 230.07 159.73 219.19 126.81 189.52 100.85 205.74" style="fill: rgb(104, 225, 253);"/><rect class="cls-9_bus-driver-51" x="306.71" y="311.45" width="72.8" height="22.26"/></g></g><g id="character_bus-driver-51"><path class="cls-10_bus-driver-51" d="M304.51,234.92c-17.75.49-34.42,1.53-47.55,3.43l-1.46-30.42c0-8.88,10.76-16.02,23.95-15.89,13.19.13,23.85,7.4,23.81,16.29l1.25,26.58Z"/><path class="cls-48_bus-driver-51 targetColor" d="M323.04,224.57c-.39.68-.98,1.22-1.68,1.56h0c-4.1,2.44-8.31,4.68-12.59,6.69-.72.41-1.52.64-2.35.66-1.24-.22-2.36-.87-3.16-1.84-2.64-2.52-5.36-5.16-6.68-8.58-.81-2.46-1.23-5.04-1.25-7.63-.27-3.75-.25-7.52.07-11.27.42-3.43,1.43-5.87,3.63-4.07.92.74,8.01,21.46,8.79,20.89l4.93-3.33c1.12-.92,2.48-1.5,3.92-1.66,2.77,0,4.58,2.79,5.84,5.26.65.97.85,2.19.53,3.32Z" style="fill: rgb(104, 225, 253);"/><path class="cls-8_bus-driver-51" d="M321.36,226.13h0c-4.1,2.44-8.31,4.68-12.59,6.69-.72.41-1.52.64-2.35.66-1.24-.22-2.36-.87-3.16-1.84-2.64-2.52-5.36-5.16-6.68-8.58-.81-2.46-1.23-5.04-1.25-7.63-.27-3.75-.25-7.52.07-11.27.55-.55,1.37,7.04,2.29,7.82.92.78,7.86,13.87,8.72,13.27,1.64-1.14,3.28-2.23,4.93-3.33,1.12-.92,2.48-1.5,3.92-1.66,2.77,0,4.58,2.79,5.82,5.26.08.22.19.41.26.61Z"/><path class="cls-48_bus-driver-51 targetColor" d="M299.55,235.06c-4.58.16-9.07.36-13.47.6l-3.49.21c-6.06.37-11.84.84-17.16,1.4,0-1.38-.16-10.71-.09-12.03.35-6.43-4.42-17.5-3.26-23.84.57-3.17,26.56-10.14,33.69-4.95,1.39.9,2.51,2.16,3.24,3.65.52,1.63.63,3.36.33,5.05-.48,4.93-.95,9.84-1.42,14.77-.13,1.18,1.09,9.29,1.64,15.15Z" style="fill: rgb(104, 225, 253);"/><path class="cls-6_bus-driver-51" d="M299.55,235.06c-4.58.16-9.07.36-13.47.6l-2.06.11-1.43.09c-6.06.37-11.84.84-17.16,1.4,0-1.38-.16-10.71-.09-12.03.01-2.31-.25-4.62-.79-6.87-1.21-5.84-3.27-12.52-2.47-16.92.57-3.17,26.56-10.14,33.69-4.95,1.39.9,2.51,2.16,3.24,3.65.52,1.63.63,3.36.33,5.05-.48,4.93-.95,9.84-1.42,14.77-.13,1.13,1.09,9.25,1.64,15.1Z"/><path class="cls-12_bus-driver-51" d="M284.05,235.77l-1.43.09c-6.06.37-11.84.84-17.16,1.4,0-1.38-.16-10.71-.09-12.03.01-2.31-.25-4.62-.79-6.87.38-.84.77-1.67,1.14-2.49.33-1.04.82-2.03,1.45-2.92,1.14.57.39,3.6.64,4.79.21.95,2.51,8.33,3.95,10.54.28.49.67.91,1.14,1.21.72.32,1.51.43,2.29.34,3.43-.11,6.87-.25,10.23-.45.24,2.14-1.11,4.19-1.37,6.37Z"/><path class="cls-48_bus-driver-51 targetColor" d="M280.76,230.53c-1.61.95.33,3.67-1.54,3.71-3.22,0-13.09-.98-16.31-.93-3.43,0-6.87-2.29-9.02-4.98-1.26-1.72-1.76-3.88-1.38-5.98.38-2.07,1.05-4.09,1.97-5.98,1.09-2.49,6.09-16.62,8.9-15.51,1.14.47,2.12,2.05,2.8,4.07,1.26,3.95,1.75,8.1,1.44,12.23-.25,1.25-3.25,3.43-2.29,4.36.3.25.63.44,1,.57,4.46,1.94,9.26,3.01,14.12,3.15.9,1.59,1.93,4.34.31,5.29Z" style="fill: rgb(104, 225, 253);"/><path class="cls-14_bus-driver-51" d="M279.22,234.24c-3.22,0-13.09-.98-16.31-.93-3.43,0-6.87-2.29-9.02-4.98-1.26-1.72-1.76-3.88-1.38-5.98.69,2.45,2.48,4.45,4.84,5.4,4.33,1.54,20.6,2.44,20.6,2.44l2.78.34c-1.58.95.37,3.67-1.51,3.71Z"/><path class="cls-45_bus-driver-51" d="M278.03,230.97c.17,1.03.65,1.98,1.38,2.72.22-.25.36-.55.4-.88.38-1.37.15-2.83-.63-4.02-1.37-1.8-1.32,1.29-1.16,2.17Z"/><path class="cls-47_bus-driver-51" d="M276.74,192.74c-.11,2.21,0,4.58,1.44,6.31.82.88,1.83,1.57,2.94,2.03,1.03.54,2.18.84,3.34.86,1.19,0,2.27-.66,2.81-1.72.68-1.74.89-3.62.61-5.47-.66-2.12-.77-4.44-1.85-6.39-1.09-1.95-4.95-2.29-7.43-2.13-1.14.08-1.68.45-1.81,1.57-.14,1.58.03,3.34-.06,4.94Z"/><path class="cls-11_bus-driver-51" d="M280.83,195.84c.68,1.6,1.84,2.94,3.32,3.86.55.35,1.18.54,1.83.57.66.03,1.3-.26,1.72-.77.37-.63.52-1.37.45-2.09v-5.26c.03-.37-.04-.74-.18-1.08-.35-.51-.9-.83-1.51-.9-1.62-.4-4.74-1.14-6.1.25-1.36,1.4-.16,4.01.48,5.42Z"/><path class="cls-47_bus-driver-51" d="M295.73,188.4c-.17,2.67-.82,5.72-3.16,6.97-.91.45-1.9.7-2.92.76-2.49.32-5.01-.05-7.3-1.08-2.51-1.37-4.43-3.61-5.41-6.29-.95-2.67-1.42-5.49-1.37-8.32,0-4.04.8-8.72,4.31-10.7,1.4-.71,2.94-1.1,4.51-1.14,3.54-.22,11.58-.49,11.12,4.51s.61,10.13.22,15.3Z"/><path class="cls-44_bus-driver-51" d="M296.12,167.04c-.68-1.95-2.18-3.49-4.11-4.23-1.71-.53-3.51-.7-5.3-.53-1.84.08-3.68.17-5.53.29-2.07,0-4.11.41-6.02,1.21-.96.42-1.74,1.17-2.21,2.11-.22.75-.4,1.52-.53,2.29-.27.98-.87,1.85-1.14,2.81-.4,1.91-.25,3.9.45,5.72.8,2.86,1.73,5.92,4.07,7.72-.5-1.55-.44-3.23.18-4.74,1.03.79,1.69,1.96,1.82,3.25.57,0,.68-.84.62-1.41-.27-1.61-.39-3.25-.35-4.89.05-1.66.82-3.22,2.11-4.27,2.07-1.49,4.91-.76,7.42-.31,1.95.35,5.56,1.14,7.46.37s1.65-3.75,1.06-5.4Z"/><path class="cls-45_bus-driver-51" d="M328.92,234.57h-3.49c-.88-9.07-9.35-16.2-19.62-16.2s-19.45,7.71-19.7,17.28c-1.14.07-2.29.13-3.49.21.17-11.58,10.5-20.96,23.19-20.96,12.21.06,22.25,8.7,23.11,19.68Z"/><path class="cls-47_bus-driver-51" d="M315.03,215.75c-.51.29-.96.68-1.33,1.14-.37.71-.55,1.49-.53,2.29-.1.57,0,1.16.29,1.66.35.46,1.21.51,1.42,0,.05.62.38,1.18.89,1.53.54.34,1.24.23,1.65-.25-.12.59-.04,1.2.24,1.73.34.49,1.22.6,1.48.06.11.62.34,1.36.95,1.51.44.07.88-.11,1.14-.47.26-.36.47-.74.64-1.14.05-.12.14-.22.24-.3.14-.04.29-.04.43,0,.33.03.66.03.98,0,.16,0,.31-.07.43-.17.06-.1.1-.22.1-.34.13-1.68-1.14-3.07-2.05-4.58-.67-1.2-1.67-2.18-2.88-2.83-.56-.4-1.2-.67-1.88-.78-.82.09-1.59.42-2.23.94Z"/><path class="cls-47_bus-driver-51" d="M280.88,225.25c-1.4.62-2.45,1.84-2.86,3.32-.35,1.54.62,3.08,2.16,3.43.72,0,1.43-.11,2.11-.33,1.53-.33,3.24-.17,4.58-1.02l.42.61c.76.1,1.5-.25,1.91-.89.45-.6.7-1.33,1.14-1.95.45-.62,1.05-1.25,1.44-1.97.84-1.58.24-3.54-1.34-4.38-.02,0-.03-.02-.05-.03-.95-.37-2-.34-2.93.08-1.06.43-1.84,1.3-2.85,1.77-1.2.56-2.55.7-3.74,1.35Z"/><path class="cls-13_bus-driver-51" d="M267.62,217.17c-.25,1.25-3.25,3.43-2.29,4.36-1.31-.32-2.42-1.2-3.02-2.41-.64-1.33.51-3.31,2.14-6.55,1.04-2.46,1.6-5.1,1.62-7.77l.14.14c1.25,3.95,1.73,8.1,1.41,12.23Z"/><path class="cls-46_bus-driver-51" d="M271.02,197.5l3.95,12.29,6.37-.35s-4.44-14.73-4.58-16.7-6.09-.11-5.74,4.76Z"/><path class="cls-46_bus-driver-51" d="M288.93,208.35c2.24.15,4.49.09,6.72-.17-.27-4.14-2.16-8.01-4.03-11.69-.04-.11-.11-.2-.19-.27-.12-.07-.27-.1-.41-.09h-1.77c-.36-.05-.73.02-1.05.19-.69.45.3,4.46.38,5.37.19,2.17.32,4.43.37,6.67Z"/></g></svg>